<svg width="672" height="243" viewBox="0 0 672 243" fill="none" xmlns="http://www.w3.org/2000/svg">
<path fill-rule="evenodd" clip-rule="evenodd" d="M224.19 122.9C231.476 118.573 239.785 116.267 248.26 116.22C262.49 116.22 265.82 123.6 265.82 133.22C234.73 133.22 212.42 144.99 212.42 170.12C212.42 185.93 223.66 199.45 241.76 199.45C252.65 199.45 262.14 195.06 267.76 187.33H268.28L269.87 197.57H293.23C292.23 191.57 291.83 182.99 291.83 174.38V138.57C291.83 117.14 283.57 97.8105 253.18 97.8105C237.89 97.8105 225.77 102.21 219.27 106.07L224.19 122.94V122.9ZM266.53 164.01C266.53 176.48 256.34 180.87 250.19 180.87C243.69 180.87 237.89 176.87 237.89 167.52C237.89 153.29 252.47 149.95 266.53 149.95V164.01ZM376.9 114.11C373.04 104.11 363.9 97.7705 351.96 97.7705C337.37 97.7705 328.77 105.86 324.2 112.88H323.71L322.48 99.7105H300.3C300.66 108.34 301.01 117.66 301.01 129.1V197.57H326.48V138.57C326.48 125.51 334.91 118.84 342.12 118.84C352.31 118.84 356 128.15 356 139.74V197.57H381.47V138.18C381.47 124.48 389.55 118.86 396.75 118.86C407.12 118.86 410.98 128.17 410.98 142.22V197.57H436.46V138.18C436.46 109.9 423.28 97.7705 406.24 97.7705C395.35 97.7705 385.33 102.17 377.24 114.11H376.9ZM472.34 73.0005C472.34 64.9205 466.72 59.1205 458.34 59.1205C450.26 59.1205 444.46 64.9205 444.46 73.0005C444.46 80.9105 450.08 86.8805 458.34 86.8805C466.42 86.8805 472.34 81.4405 472.34 73.0005ZM445.46 99.7105V197.57H471.46V99.7105H445.46Z" fill="white"/>
<path fill-rule="evenodd" clip-rule="evenodd" d="M243.88 87.9605H241.09V68.1105H243.88V87.9605ZM255.88 68.1105H258.4L268.11 83.4505L267.78 83.8105V68.1105H270.54V87.9405H267.99L258.31 72.8305L258.64 72.4805V87.9405H255.88V68.1105ZM288.47 88.1605C287.556 88.1653 286.645 88.0748 285.75 87.8905C284.92 87.7156 284.114 87.4403 283.35 87.0705C282.607 86.6989 281.909 86.2425 281.27 85.7105L283.01 83.5805C283.746 84.2202 284.593 84.7185 285.51 85.0505C286.473 85.3917 287.489 85.5577 288.51 85.5405C289.677 85.605 290.838 85.3269 291.85 84.7405C292.229 84.5009 292.538 84.1661 292.747 83.7695C292.956 83.3729 293.057 82.9284 293.04 82.4805C293.071 81.8825 292.879 81.2943 292.5 80.8305C292.121 80.4169 291.642 80.1071 291.11 79.9305C290.386 79.7027 289.648 79.5223 288.9 79.3905H288.72H288.52C287.422 79.215 286.339 78.9576 285.28 78.6205C284.427 78.3145 283.683 77.7652 283.14 77.0405C282.494 76.0888 282.184 74.9484 282.26 73.8005C282.225 72.6936 282.51 71.6 283.08 70.6505C283.66 69.7533 284.501 69.0553 285.49 68.6505C286.699 68.1614 287.996 67.9265 289.3 67.9605C290.004 67.9596 290.705 68.0401 291.39 68.2005C292.08 68.3577 292.75 68.5891 293.39 68.8905C294.092 69.2094 294.761 69.5945 295.39 70.0405L293.71 72.1905C293.019 71.6706 292.258 71.2499 291.45 70.9405C290.726 70.6732 289.961 70.5344 289.19 70.5305C288.078 70.4636 286.973 70.7469 286.03 71.3405C285.664 71.5984 285.368 71.9441 285.171 72.3461C284.974 72.748 284.88 73.1931 284.9 73.6405C284.883 73.9341 284.926 74.2281 285.025 74.5048C285.125 74.7815 285.28 75.0351 285.48 75.2505C285.887 75.6518 286.384 75.9501 286.93 76.1205C287.723 76.3562 288.527 76.5498 289.34 76.7005H289.44H289.54H289.69H289.84C290.866 76.8977 291.87 77.1924 292.84 77.5805C293.648 77.9229 294.342 78.4883 294.84 79.2105C295.435 80.1232 295.723 81.2026 295.66 82.2905C295.714 83.3833 295.418 84.4648 294.815 85.3782C294.213 86.2916 293.336 86.9894 292.31 87.3705C291.053 87.8487 289.714 88.0763 288.37 88.0405L288.47 88.1605ZM309.64 70.7305H312.42V87.9605H309.64V70.7305ZM304.03 68.1105V70.7605H318.03V68.1105H304.03ZM330.6 87.9605H327.81V68.1105H330.6V87.9605ZM346.53 70.7305H349.32V87.9605H346.53V70.7305ZM340.92 68.1105V70.7605H354.92V68.1105H340.92ZM370.85 88.1605C369.544 88.197 368.25 87.9011 367.09 87.3005C366.054 86.7242 365.222 85.8401 364.71 84.7705C364.129 83.5191 363.849 82.1495 363.89 80.7705V68.1105H366.67V80.8705C366.593 82.0901 366.986 83.2927 367.77 84.2305C368.169 84.6367 368.65 84.9529 369.181 85.1581C369.713 85.3633 370.281 85.4528 370.85 85.4205C371.422 85.4557 371.994 85.3677 372.529 85.1624C373.064 84.9571 373.549 84.6393 373.95 84.2305C374.737 83.2948 375.131 82.0906 375.05 80.8705V68.1105H377.84V80.7805C377.877 82.159 377.596 83.5276 377.02 84.7805C376.504 85.8509 375.669 86.7348 374.63 87.3105C373.462 87.9099 372.162 88.2056 370.85 88.1705V88.1605ZM392.41 70.7305H395.19V87.9605H392.41V70.7305ZM386.8 68.1105V70.7605H400.8V68.1105H386.8ZM416.6 88.1605C415.321 88.1877 414.057 87.8736 412.94 87.2505C411.894 86.6545 411.045 85.7643 410.5 84.6905C409.901 83.5006 409.603 82.1823 409.63 80.8505V75.2205C409.601 73.8885 409.899 72.5697 410.5 71.3805C411.045 70.304 411.893 69.4106 412.94 68.8105C414.068 68.2133 415.324 67.9011 416.6 67.9011C417.876 67.9011 419.132 68.2133 420.26 68.8105C421.312 69.4072 422.164 70.3012 422.71 71.3805C423.311 72.5697 423.609 73.8885 423.58 75.2205V80.8505C423.607 82.1823 423.309 83.5006 422.71 84.6905C422.164 85.7671 421.312 86.6579 420.26 87.2505C419.142 87.8736 417.879 88.1877 416.6 88.1605ZM416.6 85.4205C417.361 85.4338 418.111 85.2403 418.77 84.8605C419.393 84.4892 419.894 83.9434 420.21 83.2905C420.569 82.5603 420.744 81.7536 420.72 80.9405V75.1305C420.742 74.3143 420.567 73.5049 420.21 72.7705C419.894 72.1176 419.393 71.5718 418.77 71.2005C418.11 70.8238 417.36 70.6336 416.6 70.6505C415.843 70.6324 415.096 70.8227 414.44 71.2005C413.812 71.5689 413.307 72.1152 412.99 72.7705C412.638 73.5065 412.463 74.3148 412.48 75.1305V80.9405C412.462 81.7531 412.637 82.5584 412.99 83.2905C413.307 83.9457 413.812 84.4921 414.44 84.8605C415.083 85.2343 415.816 85.4278 416.56 85.4205H416.6Z" fill="white"/>
<path fill-rule="evenodd" clip-rule="evenodd" d="M558.37 156.701C557.19 158.271 556.5 159.8 555.37 161.15C551.885 165.6 547.159 168.916 541.79 170.68C515.79 178.951 492.65 150.491 509.79 125.851C521.32 109.271 549.87 110.961 558.79 131.191C560.593 135.112 561.505 139.384 561.46 143.701C561.46 188.131 613.1 214.531 648.71 187.701C653.84 183.841 652.57 184.351 656.82 180.37C664.08 173.59 670.08 159.831 671.28 148.921C671.97 142.621 671.88 96.4705 671.6 88.1805C666.738 88.2556 661.981 89.6111 657.81 92.1105C642.72 101.261 645.35 117.77 645.35 132.65C645.35 145.73 646.02 152.191 638.84 161.291C636.01 164.858 632.369 167.699 628.22 169.578C624.071 171.456 619.534 172.316 614.986 172.089C610.437 171.861 606.009 170.551 602.068 168.267C598.128 165.984 594.789 162.793 592.33 158.961C585.95 149.161 588.89 141.561 586.1 129.961C585.019 125.53 583.361 121.26 581.17 117.261C577.201 109.811 571.556 103.386 564.68 98.4905C539.78 80.7405 507.68 86.9805 489.88 108.551C487.165 111.854 484.864 115.478 483.03 119.34C476.918 131.96 475.851 146.437 480.047 159.817C484.243 173.196 493.386 184.471 505.61 191.34C514.228 196.13 523.963 198.545 533.82 198.34C538.966 198.255 544.073 197.423 548.98 195.87C555.45 193.79 559.09 191.251 561.23 190.581C559.99 202.171 551.79 210.481 542.87 213.991C537.256 216.117 531.121 216.449 525.31 214.941C522.758 214.286 520.311 213.276 518.04 211.941C516.974 211.318 515.951 210.623 514.98 209.861C514.13 209.003 513.18 208.251 512.15 207.62C509.21 210.921 494.64 224.62 493.8 226.311C495.51 227.421 497.17 229.311 499.15 230.84C501.051 232.302 503.056 233.622 505.15 234.791C519.42 242.851 537.36 244.741 552.6 238.451C557.76 236.321 567.19 231.101 570.6 227.031C571.346 226.186 572.162 225.407 573.04 224.701C573.87 223.911 574.44 222.941 575.2 222.071C580.2 216.341 586.2 205.241 587.14 195.071C584.55 194.021 578.82 189.681 577.22 188.071C570.39 181.241 567.48 178.641 562.7 168.821C559.51 162.231 560.08 160.981 558.37 156.701Z" fill="white"/>
<path d="M604.21 144.76C609.379 144.76 613.57 140.27 613.57 134.73C613.57 129.191 609.379 124.7 604.21 124.7C599.041 124.7 594.85 129.191 594.85 134.73C594.85 140.27 599.041 144.76 604.21 144.76Z" fill="white"/>
<path d="M628.08 144.76C633.249 144.76 637.44 140.27 637.44 134.73C637.44 129.191 633.249 124.7 628.08 124.7C622.911 124.7 618.72 129.191 618.72 134.73C618.72 140.27 622.911 144.76 628.08 144.76Z" fill="white"/>
<path fill-rule="evenodd" clip-rule="evenodd" d="M180.4 32.8105C178.8 32.9305 172.14 33.8105 170.04 32.9305C128.04 14.7605 78.2701 27.4306 50.8301 63.0306C23.6401 98.3006 26.0101 147.151 56.5001 179.931L64.1601 170.601C39.5901 140.601 39.9601 101.131 65.0101 73.1205C89.5101 45.7405 130.25 42.5005 156.42 53.7006C163.496 45.7493 171.554 38.7297 180.4 32.8105Z" fill="white"/>
<path fill-rule="evenodd" clip-rule="evenodd" d="M70.71 182.82C81.9343 191.54 95.5776 196.581 109.775 197.254C123.973 197.927 138.032 194.199 150.03 186.58C162.029 178.96 171.382 167.821 176.811 154.685C182.239 141.549 183.479 127.058 180.36 113.19C179.98 111.39 179.55 109.97 181.26 108.49C186.35 104.08 191.26 99.4904 196.08 95.1804C211.08 118.98 199.17 169.05 170.43 190.97C135.85 217.37 92.83 215.04 62.21 189.47L70.71 182.82Z" fill="white"/>
<path fill-rule="evenodd" clip-rule="evenodd" d="M59.37 198.271L47.61 207.47C31.77 218.57 17.49 231.91 1.07 242.23L0 240.93L35.12 195.271L44.3 183.57C52.8467 173.117 61.4 162.667 69.96 152.22C72.21 149.48 74.43 146.71 77.6 144.91C83.82 141.39 91.6 142.021 96.14 146.481C100.84 151.091 101.49 159.261 97.67 165.551C95.91 168.451 93.32 170.55 90.75 172.66C80.3033 181.2 69.8433 189.737 59.37 198.271Z" fill="white"/>
<path fill-rule="evenodd" clip-rule="evenodd" d="M156.54 52.8005C153.15 56.2705 150.86 60.4905 146.02 62.6105C118.08 74.8805 93.88 92.1905 72.18 112.8C69.68 115.17 67.27 117.62 64.88 120.09C62.65 122.38 60.48 124.74 58.17 127.2C60.17 127.99 61.06 127.14 62.06 126.77C78.81 120.53 96.06 116.87 114.15 117.59C117.34 117.72 118.22 115.97 119.48 113.99C136.513 87.1703 159.211 64.4041 185.98 47.2905C197.731 39.5589 210.373 33.2734 223.63 28.5705C223.74 29.3205 223.94 29.7205 223.82 29.9505C214.112 48.0417 201.432 64.3725 186.31 78.2605C185.812 78.7856 185.255 79.252 184.65 79.6505C184.289 79.9305 183.848 80.0882 183.391 80.1008C182.935 80.1134 182.486 79.9802 182.11 79.7205C181.44 79.1605 182 78.5005 182.11 77.8305C182.78 74.8305 183.28 71.7505 183.84 68.7605C183.429 68.6134 182.98 68.6095 182.566 68.7492C182.152 68.889 181.798 69.1642 181.56 69.5305C162.547 90.6946 141.875 110.307 119.74 128.18C117.89 129.68 117.63 131.07 118 133.18C119.802 144.361 120.178 155.725 119.12 167C118.56 173.69 117.28 180.32 116.2 187.85C117.52 186.69 118.2 186.15 118.81 185.55C138.81 166.13 155.64 144.55 168.02 119.92C169.256 117.342 171.243 115.198 173.72 113.77C186.856 105.884 198.947 96.3756 209.71 85.4705C232.63 62.2705 249.35 35.9005 255.59 4.10046C256.48 -0.419541 255.08 -0.309535 251.37 0.310465C225 4.74047 201.97 16.0305 181.14 31.6105C181.12 31.5705 166.71 43.1205 156.54 52.8005Z" fill="white"/>
</svg>
